<svg viewBox="0 0 198 206" xmlns="http://www.w3.org/2000/svg">
  <g fill-rule="evenodd" fill="none">
    <path d="M172.695 75.976h8v61.891a5.97 5.97 0 0 1-2.982 5.169L126.18 172.84l-4.006-6.926 50.522-29.219v-60.72zm-95.67 90.406l-4.005 6.926-52.342-30.272a5.97 5.97 0 0 1-2.983-5.169V75.974h8v60.722l51.33 29.686zM99.195 9.16L48.183 38.662l-4.005-6.925 52.025-30.09a5.977 5.977 0 0 1 5.985 0l52.154 30.164-4.006 6.925-51.14-29.577z" fill-rule="nonzero" fill="#0065AB"></path>
    <path d="M176.5 37c-6.368 0-11.5 5.152-11.5 11.5 0 6.301 5.199 11.5 11.5 11.5S188 54.801 188 48.5c0-6.415-5.085-11.5-11.5-11.5zm0-8c10.833 0 19.5 8.667 19.5 19.5 0 10.72-8.78 19.5-19.5 19.5S157 59.22 157 48.5 165.667 29 176.5 29zM21.5 37C15.132 37 10 42.152 10 48.5 10 54.801 15.199 60 21.5 60S33 54.801 33 48.5C33 42.085 27.915 37 21.5 37zm0-8C32.333 29 41 37.667 41 48.5 41 59.22 32.22 68 21.5 68S2 59.22 2 48.5 10.667 29 21.5 29zM99.5 171c-6.368 0-11.5 5.152-11.5 11.5 0 6.301 5.199 11.5 11.5 11.5s11.5-5.199 11.5-11.5c0-6.415-5.085-11.5-11.5-11.5zm0-8c10.833 0 19.5 8.667 19.5 19.5 0 10.72-8.78 19.5-19.5 19.5S80 193.22 80 182.5 88.667 163 99.5 163z" fill-rule="nonzero" fill="#60B515"></path>
    <path d="M96.862 95.514l-15 14.999v16.414a3.94 3.94 0 1 1-7.877 0V61.909a3.94 3.94 0 0 1 7.878 0v37.462l40.585-40.585a3.94 3.94 0 1 1 5.57 5.57l-25.53 25.531 26.433 35.076a3.94 3.94 0 0 1-6.294 4.742L96.862 95.514z" fill="#0065AB"></path>
  </g>
</svg>
